<svg width="36" height="45" viewBox="0 0 36 45" fill="none" xmlns="http://www.w3.org/2000/svg">
<path d="M35 1.07746H1V44H35V1.07746Z" stroke="black" stroke-miterlimit="10"/>
<path d="M1 6.24451L35 6.50248" stroke="black" stroke-miterlimit="10"/>
<path d="M6.01111 2.15485V0" stroke="black" stroke-miterlimit="10"/>
<path d="M9.72961 2.15485V0" stroke="black" stroke-miterlimit="10"/>
<path d="M13.2964 2.15485V0" stroke="black" stroke-miterlimit="10"/>
<path d="M16.7917 2.15485V0" stroke="black" stroke-miterlimit="10"/>
<path d="M19.8591 2.15485V0" stroke="black" stroke-miterlimit="10"/>
<path d="M23.2386 2.15485V0" stroke="black" stroke-miterlimit="10"/>
<path d="M26.9569 2.15485V0" stroke="black" stroke-miterlimit="10"/>
<path d="M30.7108 2.15485V0" stroke="black" stroke-miterlimit="10"/>
<path d="M6.8305 11.27L6.49811 10.1791H6.67425L6.91005 11.0143H6.92141L7.15436 10.1791H7.33334L7.56345 11.0115H7.57482L7.81061 10.1791H7.98675L7.65436 11.27H7.48959L7.25095 10.432H7.23391L6.99527 11.27H6.8305ZM8.37595 10.6138V11.27H8.20834V9.81547H8.37595V10.3496H8.39016C8.41573 10.2932 8.45408 10.2485 8.50522 10.2153C8.55683 10.1817 8.62548 10.1649 8.71118 10.1649C8.78552 10.1649 8.85062 10.1798 8.90649 10.2097C8.96237 10.239 9.00569 10.2842 9.03647 10.3453C9.06772 10.4059 9.08334 10.4831 9.08334 10.5768V11.27H8.91573V10.5882C8.91573 10.5016 8.89324 10.4346 8.84826 10.3872C8.80375 10.3394 8.74196 10.3155 8.66289 10.3155C8.60796 10.3155 8.55872 10.3271 8.51516 10.3503C8.47207 10.3735 8.43798 10.4073 8.41289 10.4518C8.38826 10.4963 8.37595 10.5503 8.37595 10.6138ZM9.711 11.2956C9.64188 11.2956 9.57914 11.2826 9.52279 11.2565C9.46645 11.23 9.4217 11.1919 9.38856 11.1422C9.35542 11.092 9.33884 11.0314 9.33884 10.9604C9.33884 10.8979 9.35116 10.8472 9.37578 10.8084C9.4004 10.7691 9.43331 10.7383 9.4745 10.716C9.51569 10.6938 9.56115 10.6772 9.61086 10.6663C9.66105 10.655 9.71148 10.646 9.76214 10.6393C9.82843 10.6308 9.88217 10.6244 9.92336 10.6202C9.96503 10.6154 9.99533 10.6076 10.0143 10.5967C10.0337 10.5858 10.0434 10.5669 10.0434 10.5399V10.5342C10.0434 10.4641 10.0242 10.4097 9.98586 10.3709C9.94798 10.332 9.89045 10.3126 9.81328 10.3126C9.73326 10.3126 9.67052 10.3302 9.62507 10.3652C9.57961 10.4002 9.54765 10.4376 9.52919 10.4774L9.37009 10.4206C9.3985 10.3543 9.43638 10.3027 9.48373 10.2658C9.53155 10.2284 9.58364 10.2023 9.63998 10.1876C9.6968 10.1725 9.75267 10.1649 9.8076 10.1649C9.84263 10.1649 9.88288 10.1692 9.92833 10.1777C9.97426 10.1857 10.0185 10.2025 10.0611 10.2281C10.1042 10.2537 10.14 10.2923 10.1684 10.3439C10.1968 10.3955 10.211 10.4646 10.211 10.5513V11.27H10.0434V11.1223H10.0349C10.0235 11.146 10.0046 11.1713 9.97805 11.1983C9.95153 11.2253 9.91626 11.2482 9.87223 11.2672C9.82819 11.2861 9.77445 11.2956 9.711 11.2956ZM9.73657 11.145C9.80286 11.145 9.85873 11.132 9.90419 11.106C9.95011 11.0799 9.98468 11.0463 10.0079 11.0051C10.0316 10.9639 10.0434 10.9206 10.0434 10.8751V10.7217C10.0363 10.7302 10.0207 10.7381 9.99652 10.7452C9.97284 10.7518 9.94538 10.7577 9.91413 10.7629C9.88335 10.7677 9.85329 10.7719 9.82393 10.7757C9.79505 10.779 9.77161 10.7819 9.75362 10.7842C9.71006 10.7899 9.66934 10.7991 9.63146 10.8119C9.59405 10.8242 9.56375 10.8429 9.54055 10.868C9.51782 10.8927 9.50646 10.9263 9.50646 10.9689C9.50646 11.0271 9.528 11.0712 9.57109 11.101C9.61465 11.1303 9.66981 11.145 9.73657 11.145ZM10.9914 10.1791V10.3212H10.426V10.1791H10.9914ZM10.5908 9.91775H10.7584V10.9575C10.7584 11.0049 10.7653 11.0404 10.779 11.0641C10.7932 11.0873 10.8112 11.1029 10.833 11.1109C10.8552 11.1185 10.8787 11.1223 10.9033 11.1223C10.9218 11.1223 10.9369 11.1213 10.9488 11.1195C10.9606 11.1171 10.9701 11.1152 10.9772 11.1138L11.0113 11.2643C10.9999 11.2686 10.984 11.2729 10.9637 11.2771C10.9433 11.2819 10.9175 11.2842 10.8863 11.2842C10.8389 11.2842 10.7925 11.274 10.747 11.2537C10.7021 11.2333 10.6647 11.2023 10.6348 11.1606C10.6055 11.119 10.5908 11.0664 10.5908 11.003V9.91775ZM11.9736 10.6138V11.27H11.806V9.81547H11.9736V10.3496H11.9878C12.0134 10.2932 12.0517 10.2485 12.1029 10.2153C12.1545 10.1817 12.2231 10.1649 12.3088 10.1649C12.3832 10.1649 12.4483 10.1798 12.5042 10.2097C12.56 10.239 12.6033 10.2842 12.6341 10.3453C12.6654 10.4059 12.681 10.4831 12.681 10.5768V11.27H12.5134V10.5882C12.5134 10.5016 12.4909 10.4346 12.4459 10.3872C12.4014 10.3394 12.3396 10.3155 12.2605 10.3155C12.2056 10.3155 12.1564 10.3271 12.1128 10.3503C12.0697 10.3735 12.0356 10.4073 12.0105 10.4518C11.9859 10.4963 11.9736 10.5503 11.9736 10.6138ZM13.3087 11.2956C13.2395 11.2956 13.1768 11.2826 13.1205 11.2565C13.0641 11.23 13.0194 11.1919 12.9862 11.1422C12.9531 11.092 12.9365 11.0314 12.9365 10.9604C12.9365 10.8979 12.9488 10.8472 12.9734 10.8084C12.9981 10.7691 13.031 10.7383 13.0722 10.716C13.1133 10.6938 13.1588 10.6772 13.2085 10.6663C13.2587 10.655 13.3091 10.646 13.3598 10.6393C13.4261 10.6308 13.4798 10.6244 13.521 10.6202C13.5627 10.6154 13.593 10.6076 13.6119 10.5967C13.6313 10.5858 13.641 10.5669 13.641 10.5399V10.5342C13.641 10.4641 13.6219 10.4097 13.5835 10.3709C13.5456 10.332 13.4881 10.3126 13.4109 10.3126C13.3309 10.3126 13.2682 10.3302 13.2227 10.3652C13.1773 10.4002 13.1453 10.4376 13.1268 10.4774L12.9678 10.4206C12.9962 10.3543 13.034 10.3027 13.0814 10.2658C13.1292 10.2284 13.1813 10.2023 13.2376 10.1876C13.2945 10.1725 13.3503 10.1649 13.4053 10.1649C13.4403 10.1649 13.4805 10.1692 13.526 10.1777C13.5719 10.1857 13.6162 10.2025 13.6588 10.2281C13.7019 10.2537 13.7376 10.2923 13.766 10.3439C13.7945 10.3955 13.8087 10.4646 13.8087 10.5513V11.27H13.641V11.1223H13.6325C13.6212 11.146 13.6022 11.1713 13.5757 11.1983C13.5492 11.2253 13.5139 11.2482 13.4699 11.2672C13.4258 11.2861 13.3721 11.2956 13.3087 11.2956ZM13.3342 11.145C13.4005 11.145 13.4564 11.132 13.5018 11.106C13.5478 11.0799 13.5823 11.0463 13.6055 11.0051C13.6292 10.9639 13.641 10.9206 13.641 10.8751V10.7217C13.6339 10.7302 13.6183 10.7381 13.5942 10.7452C13.5705 10.7518 13.543 10.7577 13.5118 10.7629C13.481 10.7677 13.4509 10.7719 13.4216 10.7757C13.3927 10.779 13.3693 10.7819 13.3513 10.7842C13.3077 10.7899 13.267 10.7991 13.2291 10.8119C13.1917 10.8242 13.1614 10.8429 13.1382 10.868C13.1155 10.8927 13.1041 10.9263 13.1041 10.9689C13.1041 11.0271 13.1257 11.0712 13.1687 11.101C13.2123 11.1303 13.2675 11.145 13.3342 11.145ZM14.8873 10.4234L14.7367 10.466C14.7273 10.4409 14.7133 10.4166 14.6948 10.3929C14.6769 10.3687 14.6522 10.3489 14.621 10.3332C14.5897 10.3176 14.5497 10.3098 14.501 10.3098C14.4342 10.3098 14.3786 10.3252 14.3341 10.356C14.29 10.3863 14.268 10.4248 14.268 10.4717C14.268 10.5134 14.2832 10.5463 14.3135 10.5704C14.3438 10.5946 14.3911 10.6147 14.4555 10.6308L14.6174 10.6706C14.715 10.6943 14.7876 10.7305 14.8355 10.7793C14.8833 10.8275 14.9072 10.8898 14.9072 10.966C14.9072 11.0285 14.8892 11.0844 14.8532 11.1337C14.8177 11.1829 14.768 11.2217 14.7041 11.2501C14.6402 11.2785 14.5658 11.2927 14.4811 11.2927C14.3698 11.2927 14.2777 11.2686 14.2048 11.2203C14.1319 11.172 14.0857 11.1015 14.0663 11.0087L14.2254 10.9689C14.2405 11.0276 14.2692 11.0716 14.3113 11.101C14.3539 11.1303 14.4096 11.145 14.4782 11.145C14.5564 11.145 14.6184 11.1284 14.6643 11.0953C14.7107 11.0617 14.7339 11.0214 14.7339 10.9746C14.7339 10.9367 14.7207 10.905 14.6941 10.8794C14.6676 10.8534 14.6269 10.8339 14.572 10.8212L14.3902 10.7785C14.2903 10.7549 14.2169 10.7182 14.17 10.6685C14.1236 10.6183 14.1004 10.5555 14.1004 10.4802C14.1004 10.4187 14.1177 10.3642 14.1522 10.3169C14.1873 10.2695 14.2349 10.2324 14.295 10.2054C14.3556 10.1784 14.4242 10.1649 14.501 10.1649C14.6089 10.1649 14.6937 10.1886 14.7552 10.2359C14.8172 10.2833 14.8613 10.3458 14.8873 10.4234ZM15.7447 11.27V9.81547H15.9124V10.3524H15.9266C15.9389 10.3335 15.9559 10.3093 15.9777 10.28C15.9999 10.2501 16.0317 10.2236 16.0729 10.2004C16.1145 10.1767 16.1709 10.1649 16.2419 10.1649C16.3338 10.1649 16.4147 10.1879 16.4848 10.2338C16.5549 10.2797 16.6096 10.3448 16.6489 10.4291C16.6882 10.5134 16.7078 10.6128 16.7078 10.7274C16.7078 10.8429 16.6882 10.9431 16.6489 11.0278C16.6096 11.1121 16.5551 11.1775 16.4855 11.2239C16.4159 11.2698 16.3356 11.2927 16.2447 11.2927C16.1747 11.2927 16.1186 11.2811 16.0764 11.2579C16.0343 11.2343 16.0018 11.2075 15.9791 11.1777C15.9564 11.1474 15.9389 11.1223 15.9266 11.1024H15.9067V11.27H15.7447ZM15.9095 10.7246C15.9095 10.807 15.9216 10.8796 15.9457 10.9426C15.9699 11.0051 16.0052 11.0541 16.0516 11.0896C16.098 11.1247 16.1548 11.1422 16.222 11.1422C16.2921 11.1422 16.3506 11.1237 16.3974 11.0868C16.4448 11.0494 16.4803 10.9992 16.504 10.9362C16.5281 10.8728 16.5402 10.8022 16.5402 10.7246C16.5402 10.6479 16.5284 10.5787 16.5047 10.5172C16.4815 10.4552 16.4462 10.4061 16.3989 10.3702C16.352 10.3337 16.293 10.3155 16.222 10.3155C16.1538 10.3155 16.0965 10.3328 16.0501 10.3673C16.0037 10.4014 15.9687 10.4492 15.945 10.5108C15.9213 10.5719 15.9095 10.6431 15.9095 10.7246ZM17.4216 11.2927C17.3165 11.2927 17.2258 11.2695 17.1496 11.2231C17.0738 11.1763 17.0153 11.1109 16.9741 11.0271C16.9334 10.9428 16.9131 10.8448 16.9131 10.7331C16.9131 10.6213 16.9334 10.5229 16.9741 10.4376C17.0153 10.3519 17.0726 10.2852 17.146 10.2373C17.2199 10.1891 17.3061 10.1649 17.4045 10.1649C17.4614 10.1649 17.5175 10.1744 17.5729 10.1933C17.6283 10.2123 17.6787 10.243 17.7241 10.2856C17.7696 10.3278 17.8058 10.3837 17.8328 10.4533C17.8598 10.5229 17.8733 10.6086 17.8733 10.7104V10.7814H17.0324V10.6365H17.7028C17.7028 10.5749 17.6905 10.52 17.6659 10.4717C17.6418 10.4234 17.6072 10.3853 17.5622 10.3574C17.5177 10.3294 17.4651 10.3155 17.4045 10.3155C17.3378 10.3155 17.28 10.332 17.2312 10.3652C17.183 10.3979 17.1458 10.4405 17.1197 10.493C17.0937 10.5456 17.0807 10.6019 17.0807 10.6621V10.7587C17.0807 10.841 17.0949 10.9109 17.1233 10.9682C17.1522 11.025 17.1922 11.0683 17.2433 11.0981C17.2945 11.1275 17.3539 11.1422 17.4216 11.1422C17.4656 11.1422 17.5054 11.136 17.5409 11.1237C17.5769 11.1109 17.6079 11.092 17.6339 11.0669C17.66 11.0413 17.6801 11.0096 17.6943 10.9717L17.8562 11.0172C17.8392 11.0721 17.8106 11.1204 17.7703 11.1621C17.7301 11.2033 17.6803 11.2355 17.6212 11.2587C17.562 11.2814 17.4955 11.2927 17.4216 11.2927ZM18.5714 11.2927C18.4692 11.2927 18.3811 11.2686 18.3072 11.2203C18.2334 11.172 18.1766 11.1055 18.1368 11.0207C18.097 10.936 18.0771 10.8391 18.0771 10.7302C18.0771 10.6195 18.0975 10.5217 18.1382 10.4369C18.1794 10.3517 18.2367 10.2852 18.3101 10.2373C18.3839 10.1891 18.4701 10.1649 18.5686 10.1649C18.6453 10.1649 18.7144 10.1791 18.776 10.2075C18.8375 10.2359 18.888 10.2757 18.9273 10.3268C18.9666 10.378 18.991 10.4376 19.0004 10.5058H18.8328C18.82 10.4561 18.7916 10.4121 18.7476 10.3737C18.704 10.3349 18.6453 10.3155 18.5714 10.3155C18.5061 10.3155 18.4488 10.3325 18.3996 10.3666C18.3508 10.4002 18.3127 10.4478 18.2852 10.5094C18.2582 10.5704 18.2447 10.6422 18.2447 10.7246C18.2447 10.8088 18.258 10.8822 18.2845 10.9447C18.3115 11.0072 18.3494 11.0558 18.3981 11.0903C18.4474 11.1249 18.5052 11.1422 18.5714 11.1422C18.615 11.1422 18.6545 11.1346 18.6901 11.1195C18.7256 11.1043 18.7556 11.0825 18.7803 11.0541C18.8049 11.0257 18.8224 10.9916 18.8328 10.9518H19.0004C18.991 11.0162 18.9675 11.0742 18.9301 11.1258C18.8932 11.177 18.8442 11.2177 18.7831 11.248C18.7225 11.2778 18.6519 11.2927 18.5714 11.2927ZM19.6886 11.2927C19.5901 11.2927 19.5037 11.2693 19.4294 11.2224C19.3555 11.1756 19.2978 11.11 19.2561 11.0257C19.2149 10.9414 19.1943 10.8429 19.1943 10.7302C19.1943 10.6166 19.2149 10.5174 19.2561 10.4327C19.2978 10.3479 19.3555 10.2821 19.4294 10.2352C19.5037 10.1883 19.5901 10.1649 19.6886 10.1649C19.7871 10.1649 19.8733 10.1883 19.9472 10.2352C20.0215 10.2821 20.0793 10.3479 20.1205 10.4327C20.1621 10.5174 20.183 10.6166 20.183 10.7302C20.183 10.8429 20.1621 10.9414 20.1205 11.0257C20.0793 11.11 20.0215 11.1756 19.9472 11.2224C19.8733 11.2693 19.7871 11.2927 19.6886 11.2927ZM19.6886 11.1422C19.7634 11.1422 19.825 11.123 19.8733 11.0847C19.9216 11.0463 19.9573 10.9959 19.9805 10.9334C20.0037 10.8709 20.0153 10.8032 20.0153 10.7302C20.0153 10.6573 20.0037 10.5894 19.9805 10.5264C19.9573 10.4634 19.9216 10.4125 19.8733 10.3737C19.825 10.3349 19.7634 10.3155 19.6886 10.3155C19.6138 10.3155 19.5523 10.3349 19.504 10.3737C19.4557 10.4125 19.4199 10.4634 19.3967 10.5264C19.3735 10.5894 19.3619 10.6573 19.3619 10.7302C19.3619 10.8032 19.3735 10.8709 19.3967 10.9334C19.4199 10.9959 19.4557 11.0463 19.504 11.0847C19.5523 11.123 19.6138 11.1422 19.6886 11.1422ZM20.4388 11.27V10.1791H20.6007V10.3496H20.6149C20.6377 10.2913 20.6744 10.2461 20.725 10.2139C20.7757 10.1812 20.8365 10.1649 20.9076 10.1649C20.9795 10.1649 21.0394 10.1812 21.0872 10.2139C21.1355 10.2461 21.1732 10.2913 21.2002 10.3496H21.2115C21.2395 10.2932 21.2814 10.2485 21.3372 10.2153C21.3931 10.1817 21.4601 10.1649 21.5382 10.1649C21.6358 10.1649 21.7156 10.1954 21.7776 10.2565C21.8396 10.3171 21.8706 10.4116 21.8706 10.5399V11.27H21.703V10.5399C21.703 10.4594 21.681 10.4019 21.637 10.3673C21.5929 10.3328 21.5411 10.3155 21.4814 10.3155C21.4047 10.3155 21.3453 10.3387 21.3032 10.3851C21.261 10.431 21.2399 10.4892 21.2399 10.5598V11.27H21.0695V10.5229C21.0695 10.4608 21.0494 10.4109 21.0091 10.373C20.9689 10.3347 20.917 10.3155 20.8536 10.3155C20.81 10.3155 20.7693 10.3271 20.7314 10.3503C20.694 10.3735 20.6637 10.4057 20.6405 10.4469C20.6178 10.4876 20.6064 10.5347 20.6064 10.5882V11.27H20.4388ZM22.6345 11.2927C22.5294 11.2927 22.4387 11.2695 22.3625 11.2231C22.2867 11.1763 22.2282 11.1109 22.187 11.0271C22.1463 10.9428 22.126 10.8448 22.126 10.7331C22.126 10.6213 22.1463 10.5229 22.187 10.4376C22.2282 10.3519 22.2855 10.2852 22.3589 10.2373C22.4328 10.1891 22.5189 10.1649 22.6174 10.1649C22.6742 10.1649 22.7304 10.1744 22.7858 10.1933C22.8412 10.2123 22.8916 10.243 22.937 10.2856C22.9825 10.3278 23.0187 10.3837 23.0457 10.4533C23.0727 10.5229 23.0862 10.6086 23.0862 10.7104V10.7814H22.2453V10.6365H22.9157C22.9157 10.5749 22.9034 10.52 22.8788 10.4717C22.8546 10.4234 22.8201 10.3853 22.7751 10.3574C22.7306 10.3294 22.678 10.3155 22.6174 10.3155C22.5507 10.3155 22.4929 10.332 22.4441 10.3652C22.3958 10.3979 22.3587 10.4405 22.3326 10.493C22.3066 10.5456 22.2936 10.6019 22.2936 10.6621V10.7587C22.2936 10.841 22.3078 10.9109 22.3362 10.9682C22.3651 11.025 22.4051 11.0683 22.4562 11.0981C22.5073 11.1275 22.5668 11.1422 22.6345 11.1422C22.6785 11.1422 22.7183 11.136 22.7538 11.1237C22.7898 11.1109 22.8208 11.092 22.8468 11.0669C22.8729 11.0413 22.893 11.0096 22.9072 10.9717L23.0691 11.0172C23.0521 11.0721 23.0234 11.1204 22.9832 11.1621C22.943 11.2033 22.8932 11.2355 22.8341 11.2587C22.7749 11.2814 22.7083 11.2927 22.6345 11.2927ZM24.3468 11.2927C24.2484 11.2927 24.1619 11.2693 24.0876 11.2224C24.0137 11.1756 23.956 11.11 23.9143 11.0257C23.8731 10.9414 23.8525 10.8429 23.8525 10.7302C23.8525 10.6166 23.8731 10.5174 23.9143 10.4327C23.956 10.3479 24.0137 10.2821 24.0876 10.2352C24.1619 10.1883 24.2484 10.1649 24.3468 10.1649C24.4453 10.1649 24.5315 10.1883 24.6054 10.2352C24.6797 10.2821 24.7375 10.3479 24.7787 10.4327C24.8203 10.5174 24.8412 10.6166 24.8412 10.7302C24.8412 10.8429 24.8203 10.9414 24.7787 11.0257C24.7375 11.11 24.6797 11.1756 24.6054 11.2224C24.5315 11.2693 24.4453 11.2927 24.3468 11.2927ZM24.3468 11.1422C24.4216 11.1422 24.4832 11.123 24.5315 11.0847C24.5798 11.0463 24.6155 10.9959 24.6387 10.9334C24.6619 10.8709 24.6735 10.8032 24.6735 10.7302C24.6735 10.6573 24.6619 10.5894 24.6387 10.5264C24.6155 10.4634 24.5798 10.4125 24.5315 10.3737C24.4832 10.3349 24.4216 10.3155 24.3468 10.3155C24.272 10.3155 24.2105 10.3349 24.1622 10.3737C24.1139 10.4125 24.0781 10.4634 24.0549 10.5264C24.0317 10.5894 24.0201 10.6573 24.0201 10.7302C24.0201 10.8032 24.0317 10.8709 24.0549 10.9334C24.0781 10.9959 24.1139 11.0463 24.1622 11.0847C24.2105 11.123 24.272 11.1422 24.3468 11.1422ZM25.5828 10.1791V10.3212H24.9947V10.1791H25.5828ZM25.1709 11.27V10.0285C25.1709 9.96604 25.1856 9.91396 25.2149 9.87229C25.2443 9.83063 25.2824 9.79938 25.3293 9.77854C25.3761 9.75771 25.4256 9.74729 25.4777 9.74729C25.5189 9.74729 25.5525 9.75061 25.5785 9.75724C25.6046 9.76386 25.624 9.77002 25.6368 9.7757L25.5885 9.92059C25.58 9.91775 25.5681 9.9142 25.553 9.90993C25.5383 9.90567 25.5189 9.90354 25.4947 9.90354C25.4393 9.90354 25.3993 9.91751 25.3747 9.94545C25.3506 9.97338 25.3385 10.0143 25.3385 10.0683V11.27H25.1709ZM27.0677 10.824V10.1791H27.2353V11.27H27.0677V11.0854H27.0564C27.0308 11.1408 26.991 11.1879 26.937 11.2267C26.8831 11.265 26.8149 11.2842 26.7325 11.2842C26.6643 11.2842 26.6037 11.2693 26.5507 11.2395C26.4976 11.2092 26.456 11.1637 26.4257 11.1031C26.3954 11.042 26.3802 10.9651 26.3802 10.8723V10.1791H26.5478V10.8609C26.5478 10.9405 26.5701 11.0039 26.6146 11.0513C26.6596 11.0986 26.7169 11.1223 26.7865 11.1223C26.8281 11.1223 26.8705 11.1116 26.9136 11.0903C26.9572 11.069 26.9936 11.0364 27.023 10.9923C27.0528 10.9483 27.0677 10.8922 27.0677 10.824ZM28.3151 10.4234L28.1645 10.466C28.155 10.4409 28.141 10.4166 28.1226 10.3929C28.1046 10.3687 28.08 10.3489 28.0487 10.3332C28.0175 10.3176 27.9775 10.3098 27.9287 10.3098C27.8619 10.3098 27.8063 10.3252 27.7618 10.356C27.7178 10.3863 27.6957 10.4248 27.6957 10.4717C27.6957 10.5134 27.7109 10.5463 27.7412 10.5704C27.7715 10.5946 27.8188 10.6147 27.8832 10.6308L28.0452 10.6706C28.1427 10.6943 28.2154 10.7305 28.2632 10.7793C28.311 10.8275 28.3349 10.8898 28.3349 10.966C28.3349 11.0285 28.3169 11.0844 28.281 11.1337C28.2455 11.1829 28.1957 11.2217 28.1318 11.2501C28.0679 11.2785 27.9936 11.2927 27.9088 11.2927C27.7975 11.2927 27.7054 11.2686 27.6325 11.2203C27.5596 11.172 27.5134 11.1015 27.494 11.0087L27.6531 10.9689C27.6683 11.0276 27.6969 11.0716 27.7391 11.101C27.7817 11.1303 27.8373 11.145 27.906 11.145C27.9841 11.145 28.0461 11.1284 28.092 11.0953C28.1384 11.0617 28.1616 11.0214 28.1616 10.9746C28.1616 10.9367 28.1484 10.905 28.1219 10.8794C28.0954 10.8534 28.0546 10.8339 27.9997 10.8212L27.8179 10.7785C27.718 10.7549 27.6446 10.7182 27.5977 10.6685C27.5513 10.6183 27.5281 10.5555 27.5281 10.4802C27.5281 10.4187 27.5454 10.3642 27.58 10.3169C27.615 10.2695 27.6626 10.2324 27.7227 10.2054C27.7833 10.1784 27.852 10.1649 27.9287 10.1649C28.0366 10.1649 28.1214 10.1886 28.183 10.2359C28.245 10.2833 28.289 10.3458 28.3151 10.4234Z" fill="black"/>
<path d="M6.82275 13.8624H29.427" stroke="black" stroke-miterlimit="10"/>
<path d="M6.82275 17.7396H28.2411" stroke="black" stroke-miterlimit="10"/>
<path d="M6.82275 21.4803H29.427" stroke="black" stroke-miterlimit="10"/>
<path d="M7.04565 29.8114H28.464" stroke="black" stroke-miterlimit="10"/>
<path d="M6.82275 34.4625H28.2411" stroke="black" stroke-miterlimit="10"/>
<path d="M6.82275 25.5472H17.6389" stroke="black" stroke-miterlimit="10"/>
</svg>
